<svg id="Layer_1" data-name="Layer 1" xmlns="http://www.w3.org/2000/svg" viewBox="0 0 770 304"><path d="M180.57,101.18c.18,1.5.3,16.14.3,18.65l.06,42.12h-7l-.11-70.3,10.29,0,21.75,44.5c.65,1.4,6.91,14.33,7.47,15.83H214c-.19-2.11-.21-17.25-.21-18.85l-.07-41.52h6.89l.11,70.3-10.11,0-21.93-44.8c-.64-1.4-6.82-14.23-7.37-15.93Z" style="fill:#4c4c4d"/><path d="M269.44,123l0,24.67c0,4.91,1.39,8.22,4.89,8.21h1.28v5.72a5.19,5.19,0,0,1-2.57.6,9,9,0,0,1-9.11-6.6h-.36A17.55,17.55,0,0,1,248.74,163c-9.28,0-14.44-7.1-14.45-14.52,0-12,10.81-18,28.55-17.69v-5.92c0-8.92-4-11.53-10.59-11.52a12.43,12.43,0,0,0-11.38,6.64l-5.24-4.5a19.11,19.11,0,0,1,16.8-9C263.07,106.47,269.42,111.57,269.44,123Zm-6.6,13.85c-12-.49-21.49,2.74-21.47,11,0,4.81,3.22,8.72,9,8.71s10.19-3.73,12.48-7.44Z" style="fill:#4c4c4d"/><path d="M288.68,147.25l-.05-33.7h-7.44v-5l7.44-1.51,2.18-14.14h4.87l0,14.34,13.78,0v6.32l-13.78,0,.05,33.29c0,6.12,2.86,8.62,7.27,8.62,4.05,0,6.34-1,7.62-1.92l2,6.22c-1.92,1.2-5.23,2.51-11.2,2.52C293.2,162.28,288.69,157.58,288.68,147.25Z" style="fill:#4c4c4d"/><path d="M327.54,85.51a5.69,5.69,0,1,1-5.14,5.72C322.4,87.92,324.69,85.51,327.54,85.51Zm-3.09,21.67h7.16l.09,54.55h-7.17Z" style="fill:#4c4c4d"/><path d="M346,134.52c0-16.84,5.74-28.39,20.9-28.41s20.5,11.2,20.53,27.85c0,16.85-5.84,28.59-21,28.61S346,151.27,346,134.52Zm21,21.23c9.64,0,13.12-6.94,13.1-21.18,0-14.64-4.07-21.76-13.72-21.74-9.46,0-13,6.94-13,21.08C353.36,148.55,357.41,155.77,367,155.75Z" style="fill:#4c4c4d"/><path d="M437.81,161.56h-7.17l-.05-35.8c0-8.33-3.79-12.93-10.77-12.92-6.16,0-10.93,4.43-12.66,9.75l.06,39h-7.17L400,107.06h5.42l1.48,5.72h.36a18.38,18.38,0,0,1,14.23-6.84c10,0,16,5.89,16.29,18Z" style="fill:#4c4c4d"/><path d="M485.15,122.68l0,24.67c0,4.92,1.39,8.22,4.88,8.21h1.29v5.72a5.2,5.2,0,0,1-2.57.61,9.06,9.06,0,0,1-9.11-6.61h-.37a17.53,17.53,0,0,1-14.87,7.34c-9.27,0-14.43-7.09-14.44-14.51,0-12,10.81-18,28.54-17.7v-5.92c0-8.92-4-11.53-10.58-11.52a12.45,12.45,0,0,0-11.38,6.64l-5.24-4.5a19.11,19.11,0,0,1,16.79-9C478.79,106.14,485.14,111.24,485.15,122.68Zm-6.59,13.85c-12-.48-21.49,2.74-21.48,11,0,4.82,3.23,8.72,9,8.71s10.19-3.73,12.48-7.44Z" style="fill:#4c4c4d"/><path d="M510.36,85.34l.1,63.18c0,4.81,1.48,6.91,5.25,6.91a8.47,8.47,0,0,0,4.13-1.11v6.62a15.17,15.17,0,0,1-6.25,1.21c-6.88,0-10.2-4.4-10.21-11.52l-.1-65.28Z" style="fill:#4c4c4d"/><path d="M202.48,242.56c-2.76,2.27-7.15,4.13-13.15,4.13-11.92,0-18.4-6.6-18.42-23.66,0-16.54,8.43-23.36,17.74-23.37,9.92,0,15.24,7,15.26,17.87,0,2.26-.15,4.95-.45,7.89l-26.62,0c.55,11.26,4.87,15.53,13.25,15.52a15,15,0,0,0,9.69-3.46ZM176.9,220.09l21,0c.08-.92.07-2.09.07-2.6,0-7.81-3.09-12.17-9.86-12.16C182.65,205.3,177.43,209.08,176.9,220.09Z" style="fill:#4c4c4d"/><path d="M221.87,187.18l.08,52.91,23.16,0v6l-29.32,0-.09-58.89Z" style="fill:#4c4c4d"/><path d="M282.05,242.44c-2.77,2.27-7.15,4.12-13.15,4.13-11.93,0-18.4-6.6-18.43-23.66,0-16.54,8.43-23.36,17.74-23.37,9.93,0,15.24,7,15.26,17.87a76.6,76.6,0,0,1-.45,7.89l-26.62,0c.56,11.26,4.87,15.53,13.26,15.52a15.05,15.05,0,0,0,9.69-3.46ZM256.47,220l21,0c.08-.92.08-2.1.08-2.6,0-7.81-3.1-12.17-9.87-12.16C262.22,205.18,257,209,256.47,220Z" style="fill:#4c4c4d"/><path d="M321.63,213.4l0,20.66c0,4.12,1.17,6.89,4.09,6.88h1.08v4.79a4.34,4.34,0,0,1-2.16.51,7.58,7.58,0,0,1-7.62-5.53h-.31a14.7,14.7,0,0,1-12.45,6.14c-7.78,0-12.09-5.94-12.1-12.15,0-10.08,9.05-15,23.9-14.82v-5c0-7.48-3.33-9.66-8.87-9.65a10.42,10.42,0,0,0-9.53,5.56l-4.39-3.77a16,16,0,0,1,14.07-7.5C316.3,199.55,321.62,203.82,321.63,213.4ZM316.11,225c-10.08-.4-18,2.3-18,9.18,0,4,2.7,7.3,7.55,7.3s8.54-3.13,10.46-6.24Z" style="fill:#4c4c4d"/><path d="M357.32,206.62a15.15,15.15,0,0,0-4.69-.66c-4.08,0-8.31,1.78-10.3,5.89l.05,34h-5.92l-.07-45.69h4.54l1.31,5h.31a11.93,11.93,0,0,1,10.53-5.81,16.47,16.47,0,0,1,4.23.41Z" style="fill:#4c4c4d"/><path d="M395.86,245.79h-6l-.05-30c0-7-3.17-10.83-9-10.82a11.38,11.38,0,0,0-10.6,8.16l.05,32.67h-6l-.07-45.69h4.54l1.23,4.79h.31a15.39,15.39,0,0,1,11.92-5.73c8.39,0,13.39,4.93,13.64,15.1Z" style="fill:#4c4c4d"/><path d="M412.92,181.93a4.75,4.75,0,0,1,0,9.49,4.77,4.77,0,0,1,0-9.49Zm-2.58,18.15h6l.07,45.69h-6Z" style="fill:#4c4c4d"/><path d="M462.26,245.69h-6l0-30c0-7-3.18-10.83-9-10.82-5.16,0-9.15,3.7-10.61,8.16l.05,32.67h-6l-.07-45.69h4.54l1.24,4.79h.31a15.4,15.4,0,0,1,11.91-5.72c8.39,0,13.4,4.93,13.64,15.1Z" style="fill:#4c4c4d"/><path d="M504.89,246c0,12-6.74,18-17.21,18-7.92,0-12.08-3-13.78-4.86l3.46-5.21c2.08,2.27,5.39,4.28,11,4.27,7.61,0,10.69-4.05,10.67-12.2v-4.2h-.31a15.11,15.11,0,0,1-10.23,3.63c-8.62,0-15.93-5.86-16-21.39,0-14.62,6.51-24.46,20.35-24.48,5.31,0,9.39,1,11.93,2.33Zm-12.83-40.72c-8.08,0-13.46,5.81-13.44,17.91,0,13.1,5.57,16.53,11.49,16.53a11,11,0,0,0,8.84-4.47l0-28.72A17.57,17.57,0,0,0,492.06,205.25Z" style="fill:#4c4c4d"/><path d="M546.9,192.15c8.23,0,12.55,3.18,14.32,4.85l-3.84,5.13c-2.31-2.1-5.47-3.94-11.09-3.93-9.38,0-15.14,7.5-15.12,24.13,0,16,5.5,24.26,15.81,24.25,5.46,0,8.62-1.61,10.54-3.63l3.39,4.78c-2.38,2.53-7.07,5-14.76,5-14.85,0-21.26-11.64-21.28-29.78C524.84,203.61,532.51,192.17,546.9,192.15Z" style="fill:#4c4c4d"/><path d="M599.69,248.26c-2.76,2.28-7.15,4.13-13.15,4.14-11.92,0-18.4-6.61-18.42-23.66,0-16.55,8.43-23.36,17.74-23.38,9.92,0,15.24,7,15.26,17.87,0,2.27-.15,5-.45,7.9l-26.62,0c.55,11.25,4.87,15.53,13.25,15.52a15.06,15.06,0,0,0,9.69-3.46Zm-25.58-22.47,21,0c.08-.92.07-2.1.07-2.61,0-7.8-3.09-12.17-9.86-12.16C579.86,211,574.64,214.79,574.11,225.79Z" style="fill:#4c4c4d"/><path d="M643.79,251.72h-6l0-30c0-7-3.18-10.83-9-10.82a11.41,11.41,0,0,0-10.6,8.16l0,32.67h-6l-.07-45.69h4.54l1.24,4.79h.3a15.39,15.39,0,0,1,11.92-5.73c8.39,0,13.4,4.94,13.64,15.1Z" style="fill:#4c4c4d"/><path d="M657.62,239.52l0-28.22h-6.23v-4.2l6.23-1.27L659.4,194h4.08l0,12L675,206v5.3l-11.55,0,0,27.88c0,5.12,2.39,7.22,6.08,7.21,3.39,0,5.31-.85,6.39-1.6l1.7,5.2c-1.62,1-4.38,2.11-9.38,2.12C661.41,252.12,657.64,248.18,657.62,239.52Z" style="fill:#4c4c4d"/><path d="M715,248.09c-2.77,2.27-7.15,4.13-13.15,4.14-11.93,0-18.4-6.61-18.42-23.66,0-16.55,8.43-23.37,17.73-23.38,9.93,0,15.25,7,15.26,17.87a76.19,76.19,0,0,1-.44,7.89l-26.63,0c.56,11.26,4.88,15.53,13.26,15.52a15.08,15.08,0,0,0,9.69-3.45Zm-25.58-22.47,21,0c.07-.93.07-2.1.07-2.61,0-7.81-3.09-12.17-9.87-12.16C695.13,210.83,689.9,214.61,689.38,225.62Z" style="fill:#4c4c4d"/><path d="M748.3,212.34a14.92,14.92,0,0,0-4.7-.66c-4.07,0-8.3,1.77-10.29,5.89l.05,34h-5.93l-.07-45.69h4.54l1.32,5h.3a12,12,0,0,1,10.54-5.81,16.89,16.89,0,0,1,4.23.42Z" style="fill:#4c4c4d"/><path d="M34.52,71.44a2.16,2.16,0,0,0,.36,0,1.08,1.08,0,0,0,.61-.15.78.78,0,0,0,.22-.26c-.2-.19-.52-.49-.73-.67q-8.07-7.44-16-14.94V71.34l5.67,0C28,71.41,31.25,71.22,34.52,71.44Z" style="fill:#43b766"/><path d="M35.51,102.94s.16-.06.17-.17-.13-.21-.19-.25a.82.82,0,0,0-.3-.1,5.54,5.54,0,0,0-1.06,0c-.52.08-6.19.11-15.11.09V118.3Z" style="fill:#43b766"/><path d="M74.49,18.26H68.66v.09h0v-.09H19s0,0,0,0,0,.06,0,.11,0,.07,0,.11V45l3.92,3.69Q31.73,57,40.49,65.18a5.76,5.76,0,0,1,1,.94,6.7,6.7,0,0,1,.82,1.29,9.82,9.82,0,0,1,.7,1.67,7.31,7.31,0,0,1-1.73,7.09A8.69,8.69,0,0,1,35.1,79L19,78.92v16l8.53,0,7.19,0,.6,0a11.91,11.91,0,0,1,1.57.24,8.57,8.57,0,0,1,2.09.76,8.13,8.13,0,0,1,3.84,4.36,7.3,7.3,0,0,1,.37,3.72,7.72,7.72,0,0,1-1.46,3.4c-.27.34-.56.66-.86,1a30,30,0,0,1-2.61,2.43c-1.07.87-6,5.38-19.26,18,.11.07-.1.15,0,.22-.14-.1,0-.2,0-.22v16.57c23.94,21,31.49,28.28,33.29,30.56,2.07,2.63,5,4.44,7.42,6.78a1.61,1.61,0,0,0,.61.38,1.25,1.25,0,0,0,1.06-.06.83.83,0,0,0,.26-.3c-.18-33.39-.3-55-.33-55.3a5.24,5.24,0,0,1,0-.56c0-.29,0-.31,0-.39-.12-.29-.65-.42-1.08-.34a1.24,1.24,0,0,0-.57.29c-9.53,8.07-13.22,11.22-14.61,12.41l-2.88,2.46-2.45,2.09-1.36,1.16-4.9-5.73c.66-.55,1.58-1.39,2.78-2.4C39,134,40.13,133,44.7,129.09c4.08-3.5,6.58-5.63,7.37-6.3l3.08-2.62a8.4,8.4,0,0,1,.94-.61,8.57,8.57,0,0,1,3.27-1,9,9,0,0,1,2.37,0A8.4,8.4,0,0,1,65.41,120c.22.16.47.37.47.37.42.34.76.66.92.82a7.27,7.27,0,0,1,1.46,2.17,8.1,8.1,0,0,1,.62,2.52,10,10,0,0,1,0,1.55c0,4.13.06,7.47.07,9.75,0,1.83,0,2.94,0,7.37,0,3.67,0,6.5,0,8.13,0,2,0,4,.06,8.6,0,.31,0,5.81.06,9.27,0,2.77,0,6.85.08,11.91a5.14,5.14,0,0,1,0,1,8.19,8.19,0,0,1-1.66,4.08,7,7,0,0,1-.8.84,9.3,9.3,0,0,1-3.43,1.95,8.82,8.82,0,0,1-8.63-2c-9.7-8.53-24.95-23.11-24.95-23.11-3-2.83-6-5.61-6-5.61-2-1.77-3.6-3.19-4.7-4.14V179.3L58,214a9.79,9.79,0,0,1,1.23,1.42,8.79,8.79,0,0,1,.93,1.67,7.12,7.12,0,0,1,.49,3.59,7.38,7.38,0,0,1-1.53,3.61,9.06,9.06,0,0,1-1.65,1.74q-6.26,5.76-12.59,11.56L38,243.9c.82.65,2,1.5,3.36,2.41a47.48,47.48,0,0,0,7.81,4,51.39,51.39,0,0,0,10.52,3.08,51.42,51.42,0,0,0,7.44.66c.85,0,7.21,0,7.35,0h0ZM69,35v3.42c0,2.5,0,2.25,0,4,0,1.11,0,1.52,0,3.47v2.67c0,.2,0,.44,0,.72s-.08.53-.13.79a7.81,7.81,0,0,1-.55,1.56,8.92,8.92,0,0,1-.54.95,7.65,7.65,0,0,1-1.46,1.65,8.52,8.52,0,0,1-.91.67l-.52.31c-.12.06-.43.23-.85.41a9.86,9.86,0,0,1-1.51.49,9.43,9.43,0,0,1-2.18.21,8.42,8.42,0,0,1-3.87-.92,7.77,7.77,0,0,1-1.7-1.25c-.74-.59-1.86-1.49-3.21-2.62s-2.57-2.2-3-2.58c-2.53-2.21-8.14-6.86-8.14-6.86-1.86-1.55-4.45-3.73-7.75-6.6l.74-.91c1.51-1.83,2.28-2.62,3.78-4.47l.32-.4L59.73,48.49a1.14,1.14,0,0,0,.43.24,1.31,1.31,0,0,0,.68,0,.8.8,0,0,0,.49-.27.56.56,0,0,0,.09-.35c0-.39,0-6.76,0-15.52H69v0c0,.52,0,1,0,1Z" style="fill:#43b766"/><path d="M48.83,223.77,50,222.68,52,220.89l.44-.41.17-.15c0-.05.37-.32.44-.41l.05-.06,0,0s0,0-.07-.08c-.54-.45-1.37-1.17-2.38-2-4.86-4.21-8.32-7.51-9.19-8.33-2.89-2.73-8.93-8.1-22.43-20,0,1.53,0,2.93,0,4.46v9.77c0,.67,0,2.16,0,2.66a49.25,49.25,0,0,0,.82,8,48.31,48.31,0,0,0,3,10,48.84,48.84,0,0,0,7.24,11.91c.83,1,1.6,1.86,2.24,2.54L47.47,225Z" style="fill:#43b766"/><path d="M118.89,79.35h-4.27a9.07,9.07,0,0,1-4-1.26,8.23,8.23,0,0,1-2.12-1.83,8,8,0,0,1-1.54-3,7.75,7.75,0,0,1-.13-3.25,7.62,7.62,0,0,1,1.13-2.86,6.35,6.35,0,0,1,.77-1c1.68-1.77,15.7-14.65,16.6-15.48a54.1,54.1,0,0,0-8.23-13.13c-.59-.7-1.11-1.28-1.49-1.69q-7.05,6.2-14.32,12.41c-2.23,1.92-4.46,3.81-6.68,5.7a9.09,9.09,0,0,1-1,.8,8,8,0,0,1-3,1.14,8.68,8.68,0,0,1-3.09.1,9.42,9.42,0,0,1-4.22-2,6.4,6.4,0,0,1-.85-.71,7.33,7.33,0,0,1-1.71-3,9.62,9.62,0,0,1-.33-1.28c0-1.6,0-3.22,0-4.84q0-6,0-12H87.9q0,7.83,0,15.65a.44.44,0,0,0,0,.2c.13.34.78.41,1.17.34a1.11,1.11,0,0,0,.43-.15,1.06,1.06,0,0,0,.23-.19c.2-.2,8-6.9,20.42-17.45-.58-.48-1.4-1.14-2.41-1.88A54.2,54.2,0,0,0,80.46,18.5c-.35,0-.8-.07-1.32-.11-.29,0-1.08-.07-2.1-.1-.75,0-1.51,0-2.55,0V90.41H130V79.25l-5.18.07C123.9,79.32,121.29,79.35,118.89,79.35Z" style="fill:#02b4df"/><path d="M114.37,71.32a.27.27,0,0,0,0,.19c0,.12.17.18.25.21a1.16,1.16,0,0,0,.66.08L130,71.71c0-2-.19-3.75-.36-5.26-.22-1.86-.5-3.4-.72-4.5-.27-1.31-.55-2.45-.81-3.4C122.78,63.43,114.49,71.09,114.37,71.32Z" style="fill:#02b4df"/><path d="M109.91,207.21l-6.63,6-7.77,7c1.16,1.1,2.87,2.72,5,4.68,1.06,1,2.09,2,3.07,2.88,5.52,5.12,9.58,8.79,11.27,10.31,3.66,3.32,8.68,7.92,15.14,14.13V188.94l-10,9.11C116.3,201.4,113.4,204.05,109.91,207.21Z" style="fill:#502390"/><path d="M120.32,102.05c-.49,0-1,0-1.47,0a30.34,30.34,0,0,0-4.09,0h-.05c-.16,0-.43.1-.45.22s0,.14.08.19a.69.69,0,0,0,.18.16l1.09,1q5,4.89,10.47,9.8c1.32,1.18,2.56,2.21,3.87,3.35V102S121.78,102.06,120.32,102.05Z" style="fill:#502390"/><path d="M130,94.47V90.41H74.49V254h45.88c-5.4-5.08-10.82-10.24-16.28-15.32l-5.55-5.12L95.72,231l-3.89-3.61c-.35-.36-.65-.63-.86-.82-.41-.37-.57-.48-.85-.77a6.47,6.47,0,0,1-.72-.85,7.76,7.76,0,0,1-1.17-2.13,7.65,7.65,0,0,1-.38-1.57,7.65,7.65,0,0,1,1.79-5.91,7.46,7.46,0,0,1,.78-.81c3.86-3.43,8-6.81,11.58-10.43l1.68-1.67c3.14-3.08,4-3.56,12.36-11.21,5.46-5,10.58-9.72,12.06-11.1L130,178.4V156c-13.2,12.24-21.17,19.62-25.62,23.73L99.76,184c-1.55,1.43-2.45,2.17-3.62,3.36-.12.12-.57.58-1.23,1.14a10.27,10.27,0,0,1-1.8,1.34,8.28,8.28,0,0,1-4.42,1.15,5.63,5.63,0,0,1-.71,0,9.27,9.27,0,0,1-2.83-.67l-.51-.24a9.61,9.61,0,0,1-1.44-.89,8.16,8.16,0,0,1-1.65-1.67,7.74,7.74,0,0,1-1.41-3.72,7,7,0,0,1,0-1.37c.24-3.08.36-40,.25-47,0-2.77.18-5.55,0-8.32a8.44,8.44,0,0,1,.63-3.68,8.2,8.2,0,0,1,1.5-2.31,8.9,8.9,0,0,1,7.77-2.62c.31,0,.61.11.92.19a10.87,10.87,0,0,1,3.88,2.13c.28.21.76.67,1.73,1.5l1.28,1.07c1.07.89,2.12,1.79,3.11,2.66l.6.51,14.29,12.24h0c-.78.92-1.56,1.85-2.35,2.77l-2.59,3h0l0,0L101.24,136l-11.48-9.83a1.57,1.57,0,0,0-.69-.23,1.39,1.39,0,0,0-.7.16,1.44,1.44,0,0,0-.25.18q0,27.36-.31,54.88c0,.4,0,1.44,0,1.83a1.1,1.1,0,0,0,.37.28,1.19,1.19,0,0,0,.41.08h.15a1.53,1.53,0,0,0,.6-.12,1.38,1.38,0,0,0,.57-.5c5.82-5.29,10.5-9.6,13.64-12.5l.41-.38c5.64-5.24,6.25-5.86,12.48-11.65,5-4.59,6.48-6,11.44-10.61l2.1-2V127.7l-11.11-10.39-10.37-9.68a12.11,12.11,0,0,1-1-1.42,7.72,7.72,0,0,1-1-2.3,6.44,6.44,0,0,1,.07-2.83,8.24,8.24,0,0,1,6.58-6.43l.63-.12,16.1-.06Z" style="fill:#502390"/><line x1="135.2" y1="257.25" x2="129.95" y2="252.25" style="fill:none"/><line x1="130.37" y1="263.46" x2="120.37" y2="254.04" style="fill:none"/><path d="M130,252.25V189c4.14-3.8,8.89-8.26,14.2-13.14v.59c-.35,24.88-.24,36,0,41.11v9.27c0,.26,0,.53,0,.79a66.29,66.29,0,0,1-1.05,9.21,61.35,61.35,0,0,1-7.86,20.47Z" style="fill:#9c50bc"/><path d="M130,90.41v55.16c1.64-1.68,11.93-11,14.2-13.06V90.41Z" style="fill:#9c50bc"/><path d="M130.37,263.46a62.79,62.79,0,0,1-10.44,10.17,61.08,61.08,0,0,1-12.25,7.4,59.52,59.52,0,0,1-9.56,3.35A60.68,60.68,0,0,1,89.55,286a89.6,89.6,0,0,1-11.54.38c-1.66,0-2.6-.06-3.52-.1V254h45.88Z" style="fill:#9c50bc"/><path d="M130,156V178.4c2.81-2.6,5.48-5.08,9.19-8.43,2.11-1.9,3.86-3.44,5-4.46V142.67c-5.3,4.92-10,9.41-14.2,13.3Z" style="fill:#9c50bc"/></svg>